<?xml version="1.0" encoding="utf-8"?>
<!-- Generator: Adobe Illustrator 16.0.0, SVG Export Plug-In . SVG Version: 6.00 Build 0)  -->
<!DOCTYPE svg PUBLIC "-//W3C//DTD SVG 1.1//EN" "http://www.w3.org/Graphics/SVG/1.1/DTD/svg11.dtd">
<svg version="1.1" id="Layer_1" xmlns="http://www.w3.org/2000/svg" xmlns:xlink="http://www.w3.org/1999/xlink" x="0px" y="0px"
	 width="136.238px" height="136.238px" viewBox="0 0 136.238 136.238" enable-background="new 0 0 136.238 136.238"
	 xml:space="preserve">
<g>
	<path fill="#0062CC" d="M73.247,71.075v54.667c29.554-2.596,52.736-27.394,52.736-57.624c0-8.603-1.891-16.758-5.259-24.095
		L73.247,71.075z"/>
	<path fill="#001ECC" d="M15.505,44.043c-3.361,7.333-5.25,15.484-5.25,24.078c0,30.228,23.184,55.026,52.737,57.622V71.1
		L15.505,44.043z"/>
	<path fill="#007BFF" d="M115.639,35.117C105.188,20.095,87.81,10.254,68.12,10.254c-19.695,0-37.082,9.849-47.533,24.882
		l47.51,27.073L115.639,35.117z"/>
	<path fill="#D1D3D4" d="M68.119,0C30.499,0,0,30.499,0,68.12c0,37.619,30.499,68.118,68.119,68.118s68.119-30.5,68.119-68.118
		C136.236,30.499,105.74,0,68.119,0z M62.993,125.742c-29.554-2.594-52.736-27.394-52.736-57.622c0-8.594,1.889-16.744,5.25-24.078
		L62.993,71.1V125.742L62.993,125.742z M68.096,62.206l-47.509-27.07c10.451-15.034,27.837-24.883,47.532-24.883
		c19.688,0,37.069,9.842,47.519,24.865L68.096,62.206z M125.983,68.12c0,30.228-23.182,55.026-52.736,57.622V71.077l47.479-27.053
		C124.092,51.361,125.983,59.517,125.983,68.12z"/>
</g>
</svg>
