<svg id="Layer_1" data-name="Layer 1" xmlns="http://www.w3.org/2000/svg" viewBox="0 0 538.01 383.33"><defs><style>.cls-1{fill:none;}.cls-1,.cls-2{stroke:#2e3f4e;stroke-miterlimit:10;stroke-width:7px;}.cls-2{fill:#2e3f4e;}</style></defs><path class="cls-1" d="M521.53,392.17" transform="translate(-36.31 -103.45)"/><path class="cls-1" d="M121.63,449.93" transform="translate(-36.31 -103.45)"/><path class="cls-1" d="M166.12,144.15c8.43-5.19,5.95-8.6,16.64-15.47,4.9-3.14,9.24-4.87,17.92-8.32a112.4,112.4,0,0,1,17.92-6A108.17,108.17,0,0,1,235.24,112c5.66-.38,8.48-.56,11.52,0,8.22,1.52,9.3,5.43,14.09,4.76,4.38-.62,4.18-4,11.52-7.14a33.81,33.81,0,0,1,9-2.38c4.21-.58,5,0,12.8,0,8,0,8-.7,10.24,0,5.7,1.81,5.3,6.09,10.24,7.14,2.86.6,5.75-.39,11.52-2.38,4.12-1.42,4.93-2.28,7.68-2.38,3-.11,3.38.85,7.68,1.19,4.64.37,4.92-.68,7.68,0,3,.73,2.5,1.92,7.68,4.76.75.41,3.06,1.46,7.68,3.57h0c3,6.33,3.12,6.73,3.84,7.13,4.07,2.26,9.18-5.83,17.92-4.75,3,.36,3.31,1.41,9,2.38,3.86.65,4.75.35,7.68,1.18a30.28,30.28,0,0,1,7.68,3.57,41.58,41.58,0,0,1,6.4,4.76c5.75,5.23,5.05,7.65,9,9.52,1.69.81,4.12.94,9,1.19,6.2.32,7.65-.28,11.52,0,3.55.26,6.68,1.37,12.8,3.57a126.37,126.37,0,0,1,16.64,7.14,99.15,99.15,0,0,1,15.36,9.51c9.1,7,15,11.49,17.93,19,3.69,9.6,0,17.64,5.12,20.22,2.36,1.2,3.67-.26,7.68,1.19,2.87,1.05,3.84,2.39,9,7.14,7.22,6.7,7.47,6,9,8.33,2.34,3.6,1.16,4.37,3.84,10.71,3,7.13,4.93,7.13,5.12,10.7.32,6-5,7.75-3.84,11.9s6.94,3.55,12.8,9.52c3.8,3.86,5.13,8,6.4,11.9a40.91,40.91,0,0,1,1.28,19c-1,6.72-2.57,6.87-2.56,11.9,0,4.26,1.13,5.09,3.84,14.27,1.84,6.24,3.29,11.28,3.84,17.85a72.17,72.17,0,0,1,0,10.71,113.75,113.75,0,0,1-2.56,19c-2.25,9.18-10.3,27.32-29.44,40.45-19.94,13.68-40.62,14.18-49.93,14.28-12.32.13-30.62.33-44.8-10.71C435,404.92,429.51,395,426,396.37c-1.89.74-1.31,4-2.56,9.51-1.81,8.07-5.81,13.54-9,17.85-6.07,8.31-13.4,12.43-23,17.84-7.85,4.41-18.07,10.15-33.28,13.09a86.92,86.92,0,0,1-37.12,0c-4.87-1.11-18.23-4.31-30.72-14.28-13.54-10.8-19.1-24-23-22.6-2.1.74-.68,4.51-3.84,9.52-3.35,5.28-9,7.51-14.09,9.51-12.34,4.87-18,1.73-23,7.14-2.48,2.67-4.54,7.1-5.12,8.33a47.58,47.58,0,0,0-2.56,7.14c-2.58,8.27-9.71,14-11.52,15.46-1.48,1.2-11.67,9.18-24.32,8.33-19.18-1.28-25.44-21.6-43.52-20.22-4.53.34-3.85,1.6-10.24,2.38-15.3,1.86-27.57-4.31-30.72-5.95-4.94-2.57-17.45-9.07-21.76-21.42-3.59-10.27.84-17.89-6.4-28.55A46.52,46.52,0,0,0,65,403.5c-9.71-10.21-16.19-11.67-19.2-19-1.21-3-1.24-5.33-1.28-8.33-.26-19.68,17.18-32.4,15.36-46.4a16.09,16.09,0,0,0-2.56-7.14c-2.67-4-6.16-5.05-9-7.13-5.3-3.93-6.46-10.11-7.68-16.66-.45-2.39-4-21.52,7.68-32.12,7.32-6.63,15.53-5.31,17.92-11.9,1.44-4-1-6.12-1.28-11.9-.09-1.63-.29-8.57,7.68-20.22,15-22,30.07-18.31,39.68-36.88,3.75-7.24,4.2-13.1,11.52-21.42a50.29,50.29,0,0,1,12.8-10.7C149.52,146.22,155.3,150.8,166.12,144.15Z" transform="translate(-36.31 -103.45)"/><path class="cls-1" d="M167.4,239.33" transform="translate(-36.31 -103.45)"/><polyline class="cls-1" points="29.96 151.34 131.09 135.88 25.98 220.94 103.99 221.53 107.41 354.33 131.09 324.81 230.93 314.33 243.09 266.15 389.66 292.92 396.7 250.68 524.42 206.07 445.03 220.94 474.14 102.56 437.66 126.95 389.66 39.51 367.9 118.03 332.06 22.86 229.64 105.54 131.09 43.77 130.45 120.41 138.77 129.93"/><polyline class="cls-1" points="130.45 130.4 215.14 168.59 182.29 233.43 233.09 265.55 259.09 220.94 387.1 246.52 435.37 220.94 339.74 195.2 431.92 126.95 367.9 118.03 333.88 188.59 259.09 216.37 222.04 168.59 231.71 112.08 327.67 188.59"/><polyline class="cls-1" points="360.22 116.84 240.82 112.08 143.71 126.95"/><ellipse class="cls-2" cx="226.45" cy="168.59" rx="16" ry="14.87"/><ellipse class="cls-2" cx="226.45" cy="105.54" rx="16" ry="14.87"/><ellipse class="cls-2" cx="130.45" cy="135.28" rx="16" ry="14.87"/><ellipse class="cls-2" cx="335.26" cy="197.15" rx="16" ry="14.87"/><ellipse class="cls-2" cx="259.09" cy="213.21" rx="16" ry="14.87"/><ellipse class="cls-2" cx="364.7" cy="121.01" rx="16" ry="14.87"/><ellipse class="cls-2" cx="437.66" cy="126.95" rx="16" ry="14.87"/><ellipse class="cls-2" cx="445.31" cy="220.94" rx="16" ry="14.87"/><ellipse class="cls-2" cx="396.7" cy="250.68" rx="16" ry="14.87"/><polyline class="cls-1" points="176.65 235.81 107.41 218.94 211.95 174.88"/><ellipse class="cls-2" cx="171.41" cy="236.41" rx="16" ry="14.87"/><ellipse class="cls-2" cx="107.41" cy="220.94" rx="16" ry="14.87"/><ellipse class="cls-2" cx="243.09" cy="266.15" rx="16" ry="14.87"/></svg>