<svg id="Layer_1" data-name="Layer 1" xmlns="http://www.w3.org/2000/svg" viewBox="0 0 1766.39 181.8"><defs><style>.cls-1{fill:none;}.cls-1,.cls-2,.cls-4{stroke:#2d3e4e;stroke-miterlimit:10;}.cls-1,.cls-2{stroke-width:6px;}.cls-2,.cls-3,.cls-4{fill:#2d3e4e;}.cls-4{stroke-width:7px;}</style></defs><path class="cls-1" d="M330.23,194" transform="translate(-102.19 -57.77)"/><path class="cls-1" d="M143.41,221" transform="translate(-102.19 -57.77)"/><path class="cls-1" d="M164.19,78.15c3.94-2.42,2.78-4,7.78-7.23A45.82,45.82,0,0,1,180.34,67a54,54,0,0,1,8.37-2.78,52.06,52.06,0,0,1,7.78-1.11,21.87,21.87,0,0,1,5.38,0c3.83.71,4.34,2.54,6.57,2.22,2.05-.28,2-1.86,5.39-3.33A15.89,15.89,0,0,1,218,60.92c2-.27,2.33,0,6,0s3.76-.33,4.79,0c2.66.84,2.47,2.84,4.78,3.33,1.34.29,2.69-.18,5.38-1.11,1.93-.66,2.3-1.06,3.59-1.11s1.58.4,3.59.56c2.17.17,2.3-.32,3.59,0s1.17.89,3.58,2.22c.35.19,1.43.68,3.59,1.67h0c1.41,3,1.46,3.14,1.8,3.33,1.9,1,4.29-2.72,8.37-2.22,1.38.17,1.55.66,4.18,1.11a28.18,28.18,0,0,1,3.59.56,14.26,14.26,0,0,1,3.59,1.66,19.25,19.25,0,0,1,3,2.23c2.68,2.44,2.36,3.57,4.19,4.44.79.38,1.92.44,4.18.56,2.9.15,3.58-.13,5.38,0a22.94,22.94,0,0,1,6,1.66,59.33,59.33,0,0,1,7.78,3.34,46.7,46.7,0,0,1,7.17,4.45c4.25,3.25,7,5.36,8.37,8.89,1.73,4.49,0,8.24,2.4,9.45,1.1.55,1.71-.13,3.58.55,1.35.49,1.8,1.12,4.19,3.34,3.37,3.13,3.49,2.82,4.19,3.89,1.09,1.68.54,2,1.79,5,1.41,3.33,2.3,3.33,2.39,5,.15,2.8-2.32,3.62-1.79,5.56s3.24,1.66,6,4.45a12.73,12.73,0,0,1,3,5.55,19.15,19.15,0,0,1,.6,8.9c-.47,3.13-1.2,3.2-1.2,5.55,0,2,.53,2.38,1.79,6.67a39.37,39.37,0,0,1,1.8,8.34,33.34,33.34,0,0,1,0,5,53.16,53.16,0,0,1-1.2,8.89,34.14,34.14,0,0,1-13.75,18.9c-9.32,6.39-19,6.62-23.32,6.67-5.76.06-14.31.15-20.93-5-4.15-3.23-6.72-7.88-8.37-7.23-.89.35-.62,1.86-1.2,4.45a21.58,21.58,0,0,1-4.19,8.33c-2.83,3.89-6.26,5.81-10.76,8.34a48.48,48.48,0,0,1-15.55,6.11,40.46,40.46,0,0,1-17.34,0,35.53,35.53,0,0,1-14.35-6.66c-6.33-5-8.92-11.22-10.77-10.56-1,.34-.31,2.1-1.79,4.44s-4.2,3.51-6.58,4.45c-5.77,2.27-8.4.8-10.76,3.33a16.84,16.84,0,0,0-2.39,3.89,22,22,0,0,0-1.2,3.34c-1.21,3.86-4.53,6.54-5.38,7.22-.69.56-5.45,4.29-11.36,3.89-9-.59-11.89-10.09-20.33-9.44-2.12.16-1.8.74-4.79,1.11a25.21,25.21,0,0,1-14.35-2.78c-2.31-1.2-8.15-4.24-10.17-10-1.67-4.8.4-8.36-3-13.33a19.31,19.31,0,0,0-2.39-2.78c-4.53-4.77-7.56-5.46-9-8.9a9.49,9.49,0,0,1-.59-3.89c-.13-9.19,8-15.13,7.17-21.67a7.5,7.5,0,0,0-1.19-3.34c-1.25-1.85-2.88-2.36-4.19-3.33-2.48-1.84-3-4.72-3.59-7.78-.21-1.12-1.88-10.06,3.59-15,3.42-3.1,7.26-2.48,8.37-5.56.67-1.86-.45-2.85-.6-5.55,0-.77-.13-4,3.59-9.45,7-10.26,14-8.55,18.54-17.23,1.75-3.38,2-6.12,5.38-10a23.64,23.64,0,0,1,6-5C156.44,79.12,159.14,81.26,164.19,78.15Z" transform="translate(-102.19 -57.77)"/><path class="cls-1" d="M164.79,122.61" transform="translate(-102.19 -57.77)"/><polyline class="cls-1" points="15.36 72.07 62.6 64.84 13.5 104.58 49.95 104.86 51.54 166.89 62.6 153.1 109.25 148.21 114.93 125.7 183.4 138.2 186.69 118.47 246.35 97.63 209.26 104.58 222.86 49.28 205.82 60.67 183.4 19.82 173.23 56.5 156.49 12.04 108.64 50.67 62.6 21.82 62.3 57.62 66.19 62.06"/><polyline class="cls-1" points="62.3 62.28 101.87 80.12 86.52 110.41 110.25 125.42 122.4 104.58 182.2 116.53 204.75 104.58 160.08 92.55 203.14 60.67 173.23 56.5 157.34 89.47 122.4 102.45 105.09 80.12 109.61 53.73 154.44 89.47"/><polyline class="cls-1" points="169.64 55.95 113.87 53.73 68.5 60.67"/><ellipse class="cls-2" cx="107.15" cy="80.12" rx="7.47" ry="6.95"/><ellipse class="cls-2" cx="107.15" cy="50.67" rx="7.47" ry="6.95"/><ellipse class="cls-2" cx="62.3" cy="64.56" rx="7.47" ry="6.95"/><ellipse class="cls-2" cx="157.98" cy="93.46" rx="7.47" ry="6.95"/><ellipse class="cls-2" cx="122.4" cy="100.97" rx="7.47" ry="6.95"/><ellipse class="cls-2" cx="171.74" cy="57.89" rx="7.47" ry="6.95"/><ellipse class="cls-2" cx="205.82" cy="60.67" rx="7.47" ry="6.95"/><ellipse class="cls-2" cx="209.39" cy="104.58" rx="7.47" ry="6.95"/><ellipse class="cls-2" cx="186.69" cy="118.47" rx="7.47" ry="6.95"/><polyline class="cls-1" points="83.89 111.53 51.54 103.64 100.38 83.06"/><ellipse class="cls-2" cx="81.44" cy="111.8" rx="7.47" ry="6.95"/><ellipse class="cls-2" cx="51.54" cy="104.58" rx="7.47" ry="6.95"/><ellipse class="cls-2" cx="114.93" cy="125.7" rx="7.47" ry="6.95"/><path class="cls-3" d="M398.19,221.86V72.36h46.07q22.94,0,34.51,10.06t11.56,29.78a31.63,31.63,0,0,1-5.61,18.53,36.69,36.69,0,0,1-15.29,12.48,32.69,32.69,0,0,1,18.05,12.88q6.63,9.51,6.63,22.65,0,20.12-12.3,31.62t-34.74,11.5Zm18.58-85.74h28.07q12.2,0,19.5-6.48t7.31-17.6q0-12.35-6.77-18t-20.62-5.61H416.77Zm0,15.81v53.81h30.69q13,0,20.47-7.14t7.5-19.66q0-27-27.68-27Z" transform="translate(-102.19 -57.77)"/><path class="cls-3" d="M573.28,161.38h-33.1v60.48H521.5V72.36h46.65q23.8,0,36.63,11.5t12.83,33.47q0,14-7.12,24.34a42.75,42.75,0,0,1-19.79,15.5l33.1,63.46v1.23H603.86Zm-33.1-16.12h28.55q13.85,0,22-7.61t8.18-20.37q0-13.89-7.79-21.29t-22.51-7.51H540.18Z" transform="translate(-102.19 -57.77)"/><path class="cls-3" d="M721.46,182.74h-59l-13.26,39.12H630l53.81-149.5h16.26L754,221.86H734.91ZM668,166.62h47.91l-24-69.93Z" transform="translate(-102.19 -57.77)"/><path class="cls-3" d="M792.89,221.86H774.3V72.36h18.59Z" transform="translate(-102.19 -57.77)"/><path class="cls-3" d="M935.16,221.86H916.48L845.54,106.65V221.86H826.86V72.36h18.68l71.14,115.72V72.36h18.48Z" transform="translate(-102.19 -57.77)"/><path class="cls-3" d="M998.56,174.73l2.71,19.72,4-17.77,27.87-104.32h15.68L1076,176.68l3.87,18.07,3-20.12,21.88-102.27h18.68l-34.17,149.5h-16.94l-29-108.94-2.23-11.4-2.23,11.4-30.1,108.94H991.79L957.72,72.36H976.3Z" transform="translate(-102.19 -57.77)"/><path class="cls-3" d="M1217.69,182.74h-59l-13.26,39.12h-19.17L1180,72.36h16.26l53.91,149.5h-19.07Zm-53.43-16.12h47.91l-24-69.93Z" transform="translate(-102.19 -57.77)"/><path class="cls-3" d="M1320.86,161.38h-33.1v60.48h-18.68V72.36h46.65q23.8,0,36.63,11.5t12.83,33.47q0,14-7.11,24.34a42.83,42.83,0,0,1-19.8,15.5l33.1,63.46v1.23h-19.93Zm-33.1-16.12h28.55q13.85,0,22-7.61t8.18-20.37q0-13.89-7.79-21.29t-22.51-7.51h-28.45Z" transform="translate(-102.19 -57.77)"/><path class="cls-3" d="M1470.88,152.76h-61.07v53h70.94v16.12h-89.52V72.36h88.56V88.48h-70v48.16h61.07Z" transform="translate(-102.19 -57.77)"/><path class="cls-3" d="M1609.77,221.86h-12V150.19h-80.53v71.67h-11.9V72.36h11.9v67.15h80.53V72.36h12Z" transform="translate(-102.19 -57.77)"/><path class="cls-3" d="M1742.66,72.36V174.42q-.11,15.11-6.29,26.29a42.39,42.39,0,0,1-17.47,17.2,54.29,54.29,0,0,1-25.89,6q-22.26,0-35.67-12.89t-13.89-35.68v-103h11.81V173.5q0,18.88,10.16,29.31T1693,213.24q17.41,0,27.53-10.48t10.12-29.16V72.36Z" transform="translate(-102.19 -57.77)"/><path class="cls-3" d="M1775.86,221.86V72.36h41.61q22.65,0,34.36,9.91t11.72,29.23a34.52,34.52,0,0,1-6,20.19A32.59,32.59,0,0,1,1841.28,144a33.61,33.61,0,0,1,19.8,12.83,37.16,37.16,0,0,1,7.5,23q0,19.8-12,30.94T1823,221.86Zm11.9-82.45h32.52q14.91-.32,23.09-7.46t8.17-20.83q0-14.4-8.46-21.24T1817.47,83h-29.71Zm0,10.68v61.09h35.72q15.29,0,24.24-8.25t9-22.91q0-13.85-8.56-21.89t-23.67-8Z" transform="translate(-102.19 -57.77)"/><ellipse class="cls-4" cx="1408.16" cy="32.33" rx="18.34" ry="18.08"/><ellipse class="cls-4" cx="1547.33" cy="36.33" rx="18.34" ry="18.08"/><ellipse class="cls-4" cx="1633.37" cy="74.99" rx="18.34" ry="18.08"/><ellipse class="cls-4" cx="1680.91" cy="144.08" rx="18.34" ry="18.08"/><ellipse class="cls-4" cx="1500.41" cy="144.08" rx="18.34" ry="18.08"/></svg>