<?xml version="1.0" encoding="utf-8"?>
<!-- Generator: Adobe Illustrator 16.0.0, SVG Export Plug-In . SVG Version: 6.00 Build 0)  -->
<!DOCTYPE svg PUBLIC "-//W3C//DTD SVG 1.1//EN" "http://www.w3.org/Graphics/SVG/1.1/DTD/svg11.dtd">
<svg version="1.1" id="Layer_1" xmlns="http://www.w3.org/2000/svg" xmlns:xlink="http://www.w3.org/1999/xlink" x="0px" y="0px"
	 width="795.887px" height="136.238px" viewBox="0 0 795.887 136.238" enable-background="new 0 0 795.887 136.238"
	 xml:space="preserve">
<g>
	<g>
		<path fill="#0062CC" d="M73.247,71.075v54.667c29.554-2.596,52.736-27.394,52.736-57.624c0-8.603-1.891-16.758-5.259-24.095
			L73.247,71.075z"/>
		<path fill="#001ECC" d="M15.505,44.043c-3.361,7.333-5.25,15.484-5.25,24.078c0,30.228,23.184,55.026,52.737,57.622V71.1
			L15.505,44.043z"/>
		<path fill="#007BFF" d="M115.639,35.117C105.188,20.095,87.81,10.254,68.12,10.254c-19.695,0-37.082,9.849-47.533,24.882
			l47.51,27.073L115.639,35.117z"/>
		<path fill="#D1D3D4" d="M68.119,0C30.499,0,0,30.499,0,68.12c0,37.619,30.499,68.118,68.119,68.118s68.119-30.5,68.119-68.118
			C136.236,30.499,105.74,0,68.119,0z M62.993,125.742c-29.554-2.594-52.736-27.394-52.736-57.622c0-8.594,1.889-16.744,5.25-24.078
			L62.993,71.1V125.742L62.993,125.742z M68.096,62.206l-47.509-27.07c10.451-15.034,27.837-24.883,47.532-24.883
			c19.688,0,37.069,9.842,47.519,24.865L68.096,62.206z M125.983,68.12c0,30.228-23.182,55.026-52.736,57.622V71.077l47.479-27.053
			C124.092,51.361,125.983,59.517,125.983,68.12z"/>
	</g>
	<g>
		<path d="M217.763,68.217c-1.404,2.932-3.333,5.389-5.783,7.358c-2.454,1.975-5.319,3.461-8.602,4.441
			c-3.282,0.996-6.802,1.484-10.563,1.484h-11.181v20.076h-14.72V34.671h27.335c4.014,0,7.6,0.56,10.753,1.672
			c3.154,1.112,5.83,2.691,8.027,4.729c2.2,2.045,3.885,4.479,5.066,7.312c1.179,2.838,1.766,5.973,1.766,9.418v0.188
			C219.862,61.878,219.163,65.284,217.763,68.217z M204.956,58.083c0-3.314-1.069-5.826-3.204-7.545
			c-2.135-1.727-5.048-2.582-8.742-2.582h-11.375v20.455h11.659c3.694,0,6.564-0.973,8.602-2.916
			c2.038-1.945,3.061-4.348,3.061-7.219V58.083z"/>
		<path d="M271.379,101.577l-14.334-21.414h-11.566v21.414H230.76V34.671h30.586c7.965,0,14.16,1.945,18.589,5.833
			c4.426,3.881,6.643,9.302,6.643,16.241v0.193c0,5.422-1.322,9.824-3.967,13.238c-2.645,3.406-6.102,5.912-10.372,7.506
			l16.346,23.895H271.379z M271.667,57.507c0-3.182-1.019-5.568-3.061-7.164c-2.038-1.594-4.873-2.387-8.505-2.387h-14.623v19.211
			h14.91c3.633,0,6.417-0.863,8.361-2.582s2.917-4.014,2.917-6.876V57.507z"/>
		<path d="M349.648,101.577l-6.114-15.012h-28.288l-6.117,15.012h-15.003l28.673-67.388h13.564l28.685,67.388H349.648z
			 M329.395,51.876l-8.898,21.691h17.78L329.395,51.876z"/>
		<path fill="#3F3F3F" d="M433.851,81.26c-1.719,4.107-4.153,7.668-7.311,10.656c-3.15,3.002-6.915,5.35-11.278,7.076
			c-4.363,1.721-9.154,2.584-14.381,2.584h-24.943V34.671h24.943c5.227,0,10.018,0.84,14.381,2.536
			c4.363,1.68,8.128,4.029,11.278,7.016c3.157,3.002,5.592,6.534,7.311,10.609c1.728,4.084,2.583,8.479,2.583,13.191
			C436.434,72.735,435.578,77.153,433.851,81.26z M422.426,59.047c-1.113-2.776-2.684-5.196-4.69-7.241
			c-2.015-2.045-4.457-3.648-7.335-4.799c-2.877-1.151-6.066-1.727-9.582-1.727h-13.223v45.687h13.223
			c3.516,0,6.705-0.561,9.582-1.68c2.878-1.121,5.32-2.691,7.335-4.707c2.007-2.014,3.577-4.41,4.69-7.193
			c1.119-2.785,1.68-5.842,1.68-9.17C424.105,64.888,423.545,61.831,422.426,59.047z"/>
		<path fill="#3F3F3F" d="M462.334,73.374v28.203h-11.659V34.671h11.659v27.814h32.114V34.671h11.659v66.906h-11.659V73.374H462.334
			z"/>
		<path fill="#3F3F3F" d="M587.729,81.401c-1.72,4.215-4.146,7.887-7.266,11.043c-3.118,3.158-6.82,5.656-11.083,7.498
			c-4.27,1.852-8.983,2.777-14.147,2.777c-5.157,0-9.878-0.91-14.148-2.73c-4.262-1.805-7.926-4.277-10.99-7.404
			c-3.057-3.119-5.444-6.781-7.163-10.982c-1.719-4.215-2.582-8.664-2.582-13.385c0-4.714,0.863-9.17,2.582-13.386
			c1.719-4.199,4.138-7.879,7.265-11.029c3.119-3.158,6.813-5.662,11.083-7.506c4.271-1.843,8.983-2.776,14.148-2.776
			c5.156,0,9.87,0.91,14.14,2.722c4.271,1.82,7.934,4.293,10.99,7.412c3.064,3.119,5.452,6.79,7.172,10.99
			c1.719,4.208,2.582,8.665,2.582,13.378C590.311,72.735,589.447,77.2,587.729,81.401z M576.311,58.992
			c-1.12-2.901-2.676-5.429-4.683-7.599c-2.015-2.162-4.418-3.889-7.218-5.164c-2.808-1.269-5.865-1.906-9.178-1.906
			c-3.313,0-6.354,0.623-9.124,1.859c-2.776,1.244-5.148,2.939-7.124,5.07c-1.976,2.132-3.523,4.652-4.636,7.545
			c-1.112,2.909-1.673,5.974-1.673,9.225c0,3.251,0.561,6.332,1.673,9.224c1.112,2.9,2.676,5.43,4.683,7.6
			c2.006,2.17,4.41,3.889,7.218,5.156c2.8,1.275,5.864,1.914,9.178,1.914s6.354-0.623,9.123-1.859
			c2.776-1.244,5.149-2.932,7.125-5.064c1.968-2.139,3.516-4.65,4.636-7.551c1.111-2.902,1.672-5.975,1.672-9.225
			C577.982,64.966,577.422,61.894,576.311,58.992z"/>
		<path fill="#3F3F3F" d="M663.71,101.577h-14.241l-22.844-30.109l-10.414,10.703v19.406h-11.659V34.671h11.659v33.646
			l31.826-33.646h14.428L634.66,63.434L663.71,101.577z"/>
		<path fill="#3F3F3F" d="M733.189,81.401c-1.719,4.215-4.146,7.887-7.265,11.043c-3.119,3.158-6.821,5.656-11.083,7.498
			c-4.271,1.852-8.983,2.777-14.148,2.777c-5.156,0-9.878-0.91-14.147-2.73c-4.263-1.805-7.926-4.277-10.99-7.404
			c-3.057-3.119-5.444-6.781-7.163-10.982c-1.72-4.215-2.583-8.664-2.583-13.385c0-4.714,0.863-9.17,2.583-13.386
			c1.719-4.199,4.138-7.879,7.264-11.029c3.119-3.158,6.813-5.662,11.084-7.506c4.27-1.843,8.983-2.776,14.147-2.776
			c5.157,0,9.87,0.91,14.141,2.722c4.27,1.82,7.933,4.293,10.99,7.412c3.064,3.119,5.452,6.79,7.171,10.99
			c1.719,4.208,2.582,8.665,2.582,13.378C735.771,72.735,734.908,77.2,733.189,81.401z M721.771,58.992
			c-1.12-2.901-2.676-5.429-4.682-7.599c-2.016-2.162-4.418-3.889-7.219-5.164c-2.808-1.269-5.864-1.906-9.178-1.906
			s-6.354,0.623-9.123,1.859c-2.777,1.244-5.149,2.939-7.125,5.07c-1.976,2.132-3.523,4.652-4.635,7.545
			c-1.113,2.909-1.673,5.974-1.673,9.225c0,3.251,0.56,6.332,1.673,9.224c1.111,2.9,2.675,5.43,4.682,7.6s4.41,3.889,7.218,5.156
			c2.8,1.275,5.864,1.914,9.178,1.914s6.354-0.623,9.124-1.859c2.776-1.244,5.148-2.932,7.124-5.064
			c1.968-2.139,3.516-4.65,4.636-7.551c1.112-2.902,1.672-5.975,1.672-9.225C723.443,64.966,722.884,61.894,721.771,58.992z"/>
		<path fill="#3F3F3F" d="M774.669,101.577h-11.854V45.56h-21.21V34.671h54.281V45.56h-21.218V101.577z"/>
	</g>
</g>
</svg>
