<svg xmlns="http://www.w3.org/2000/svg" viewBox="0 0 1821.77 188.54"><defs><style>.cls-1,.cls-2{fill:#f15a24;}.cls-2{stroke:#f15a24;stroke-miterlimit:10;stroke-width:7px;}</style></defs><g id="Layer_2" data-name="Layer 2"><g id="Layer_1-2" data-name="Layer 1"><path class="cls-1" d="M15.36,219.62V37.1H75.62q31.32,0,47.5,12.73t16.19,37.29a43.1,43.1,0,0,1-6.5,23.63,37.93,37.93,0,0,1-18.08,15,36.18,36.18,0,0,1,20.86,14.17q7.62,10.65,7.62,26.07,0,26.33-15.83,39.86T82.24,219.62Zm35.45-106H77q26.82-.5,26.82-22.69,0-12.4-6.79-17.86T75.62,67.57H50.81Zm0,26.58v49.26H81.18q12.51,0,19.55-6.33t7-17.49q0-25.07-24.46-25.44Z" transform="translate(-15.36 -33.59)"/><path class="cls-1" d="M233.48,152.81H205.24v66.81H169.79V37.1h63.93q30.48,0,47,14.42t16.54,40.74q0,18.67-7.62,31.15t-23.1,19.87l37.22,74.59v1.75H265.74Zm-28.24-30.46h28.6q13.35,0,20.67-7.21t7.33-19.87q0-12.92-6.91-20.31t-21.21-7.39H205.24Z" transform="translate(-15.36 -33.59)"/><path class="cls-1" d="M421.35,182H359.2l-11.81,37.6h-37.7L373.74,37.1h32.84L471,219.62H433.29Zm-52.58-30.47h43L390.16,83.24Z" transform="translate(-15.36 -33.59)"/><path class="cls-1" d="M524.74,219.62H489.3V37.1h35.44Z" transform="translate(-15.36 -33.59)"/><path class="cls-1" d="M697.49,219.62H662L593,99.53V219.62H557.59V37.1H593l69.12,120.35V37.1h35.33Z" transform="translate(-15.36 -33.59)"/><path class="cls-1" d="M862.44,167,885.6,37.1h35.33L882.76,219.62H847.08l-28-122.09-28,122.09H755.39L717.22,37.1h35.33l23.28,129.62L804.19,37.1h30Z" transform="translate(-15.36 -33.59)"/><path class="cls-1" d="M1032.12,182H970l-11.82,37.6H920.46l64-182.52h32.85l64.39,182.52h-37.69Zm-52.58-30.47h43l-21.63-68.31Z" transform="translate(-15.36 -33.59)"/><path class="cls-1" d="M1161.5,152.81h-28.24v66.81h-35.45V37.1h63.93q30.48,0,47,14.42t16.55,40.74q0,18.67-7.62,31.15t-23.1,19.87l37.22,74.59v1.75h-38Zm-28.24-30.46h28.59q13.37,0,20.68-7.21t7.33-19.87q0-12.92-6.91-20.31t-21.21-7.39h-28.48Z" transform="translate(-15.36 -33.59)"/><path class="cls-1" d="M1355.75,140.52h-68.06v48.89h79.88v30.21H1252.25V37.1h115.08V67.57h-79.64v43.49h68.06Z" transform="translate(-15.36 -33.59)"/><path class="cls-1" d="M1519.29,219.62h-6.38v-90.5H1403v90.5h-6.38V37.1H1403v85.25h109.89V37.1h6.38Z" transform="translate(-15.36 -33.59)"/><path class="cls-1" d="M1682.35,37.1V160.71q0,28.95-15.84,45.19t-42.89,16.23q-27.06,0-42.89-16.23t-16-44.69V37.1h6.38V160.46q0,25.32,14.35,40.11t38.11,14.79q23.75,0,38.05-14.79T1676,160.33V37.1Z" transform="translate(-15.36 -33.59)"/><path class="cls-1" d="M1727.84,219.62V37.1h45.25q27.77,0,42,12t14.23,34.78q0,16.55-7.91,27.46t-22.33,13.91a42.29,42.29,0,0,1,27.17,15,43.57,43.57,0,0,1,10.87,29.15q0,23.31-14.24,36.79t-39.64,13.47Zm6.38-96.9h41.23q23.52,0,35.45-9.59t11.94-29.77q0-38.85-48.33-39.49h-40.29Zm0,6.77v83.36H1784q21.86,0,34.33-11.47t12.46-31.77q0-17.31-12-28.52t-32.26-11.6Z" transform="translate(-15.36 -33.59)"/><ellipse class="cls-2" cx="1384.73" cy="65.11" rx="22.39" ry="22.08"/><ellipse class="cls-2" cx="1554.63" cy="25.58" rx="22.39" ry="22.08"/><ellipse class="cls-2" cx="1659.67" cy="77.26" rx="22.39" ry="22.08"/><ellipse class="cls-2" cx="1717.71" cy="139.52" rx="22.39" ry="22.08"/><ellipse class="cls-2" cx="1497.35" cy="161.6" rx="22.39" ry="22.08"/></g></g></svg>