<svg id="Layer_1" data-name="Layer 1" xmlns="http://www.w3.org/2000/svg" viewBox="0 0 600 600"><defs><style>.cls-1{fill:#262262;}.cls-2{fill:#fff;}</style></defs><circle class="cls-1" cx="300" cy="300" r="300"/><path class="cls-2" d="M59.05,329.62H92.64v12.71H43.23V265.55H59.05Z"/><path class="cls-2" d="M146.06,326.51H118.32l-5.27,15.82H96.23l28.58-76.78h14.66l28.74,76.78H151.39Zm-23.47-12.82h19.2L132.14,285Z"/><path class="cls-2" d="M203.8,314.22H191.2v28.11H175.38V265.55h28.53q13.6,0,21,6.06t7.38,17.14q0,7.86-3.4,13.1a23.2,23.2,0,0,1-10.31,8.36l16.61,31.38v.74h-17Zm-12.6-12.81H204q6,0,9.23-3a10.82,10.82,0,0,0,3.27-8.35q0-5.43-3.08-8.55t-9.47-3.11H191.2Z"/><path class="cls-2" d="M287.65,326.51H259.91l-5.27,15.82H237.82l28.58-76.78h14.66l28.74,76.78H293Zm-23.47-12.82h19.2L273.73,285Z"/><path class="cls-2" d="M356.79,322.18a8.13,8.13,0,0,0-3.17-6.88q-3.17-2.4-11.39-5.06a80.2,80.2,0,0,1-13-5.25q-13.08-7.07-13.08-19a18.63,18.63,0,0,1,3.5-11.11,22.92,22.92,0,0,1,10.08-7.62,38,38,0,0,1,14.74-2.74,34.62,34.62,0,0,1,14.66,3,23.34,23.34,0,0,1,10,8.41,22,22,0,0,1,3.56,12.34H356.84a10.37,10.37,0,0,0-3.32-8.2q-3.33-2.92-9.34-2.92c-3.87,0-6.87.81-9,2.45A7.72,7.72,0,0,0,332,286c0,2.49,1.26,4.59,3.77,6.27a42.51,42.51,0,0,0,11.1,4.75q13.5,4.07,19.67,10.07a20.08,20.08,0,0,1,6.17,15q0,10-7.54,15.63t-20.3,5.67a39.24,39.24,0,0,1-16.14-3.24,25.48,25.48,0,0,1-11.1-8.89,22.74,22.74,0,0,1-3.83-13.07h15.88q0,12.7,15.19,12.7,5.64,0,8.8-2.29A7.46,7.46,0,0,0,356.79,322.18Z"/><path class="cls-2" d="M441.48,265.55v50.57q0,12.6-7.89,19.93t-21.54,7.33q-13.44,0-21.36-7.12t-8.06-19.56V265.55h15.82v50.67q0,7.54,3.61,11t10,3.45q13.35,0,13.55-14v-51.1Z"/><path class="cls-2" d="M482.87,314.22h-12.6v28.11H454.45V265.55H483q13.61,0,21,6.06t7.38,17.14q0,7.86-3.4,13.1a23.15,23.15,0,0,1-10.31,8.36l16.61,31.38v.74h-17Zm-12.6-12.81H483q6,0,9.23-3a10.82,10.82,0,0,0,3.27-8.35q0-5.43-3.08-8.55T483,278.36H470.27Z"/><path class="cls-2" d="M569.57,309.05H539.19v20.57h35.65v12.71H523.37V265.55h51.37v12.81H539.19v18.3h30.38Z"/></svg>