<?xml version="1.0" encoding="utf-8"?>
<!-- Generator: Adobe Illustrator 16.0.0, SVG Export Plug-In . SVG Version: 6.00 Build 0)  -->
<!DOCTYPE svg PUBLIC "-//W3C//DTD SVG 1.1//EN" "http://www.w3.org/Graphics/SVG/1.1/DTD/svg11.dtd">
<svg version="1.1" id="Layer_1" xmlns="http://www.w3.org/2000/svg" xmlns:xlink="http://www.w3.org/1999/xlink" x="0px" y="0px"
	 width="152px" height="152px" viewBox="0 0 152 152" enable-background="new 0 0 152 152" xml:space="preserve">
<g>
	<path fill="#FF5000" d="M-0.003,75.998c0,41.976,34.03,76.002,76.008,76.002c41.971,0,75.998-34.026,75.998-76.002
		C152.003,34.027,117.976,0,76.005,0C34.027,0-0.003,34.027-0.003,75.998"/>
	<path fill-rule="evenodd" clip-rule="evenodd" fill="#FFFFFF" d="M61.518,74.327c-0.664-4.232-3.685-7.202-8.774-7.202h-7.904
		v8.103v0.2v6.882h0.01c0,2.593,0.007,5.19-0.01,7.789c0,0.479,0.132,0.682,0.631,0.669c0.725-0.033,1.452-0.033,2.174,0
		c0.495,0.013,0.649-0.185,0.644-0.661c-0.023-1.852,0.007-3.699-0.023-5.544c-0.005-0.547,0.155-0.747,0.715-0.737
		c1.427,0.025,2.854,0.021,4.28,0.002C58.495,83.785,62.319,79.49,61.518,74.327 M53.667,80.255h-0.028
		c-0.129,0.011-0.251,0.025-0.383,0.025c-0.674,0.013-1.351,0-2.033,0c-0.75,0-1.495,0.008-2.248,0.008
		c-0.725,0-0.712-0.188-0.699-0.72c0.023-1.415-0.005-2.83,0.007-4.246c-0.013-1.417,0.016-2.518-0.007-3.93
		c-0.013-0.535,0-0.713,0.679-0.713c0.76,0,3.553-0.008,4.301,0c0.129,0,0.253,0.018,0.375,0.023
		c0.015,0.002,0.028,0.002,0.036,0.002c2.611,0.232,4.527,2.077,4.512,4.618C58.193,77.855,56.277,80.024,53.667,80.255"/>
	<path fill="#FFFFFF" d="M88.91,77.69h2.9c0.269-1.176,0.337-2.41,0.151-3.69c-0.407-2.798-2.058-5.116-4.248-6.395
		c-1.009-0.587-2.137-0.968-3.303-1.064h-0.869c-0.061-0.003-0.116-0.003-0.177-0.005c-0.057,0.002-0.114,0.002-0.178,0.005H82.32
		c-1.168,0.096-2.296,0.478-3.305,1.064c-2.189,1.279-3.837,3.597-4.245,6.395c-0.798,5.533,3.021,10.347,8.259,10.398
		c1.422,0.016,5.297,0.025,6.716-0.005c0.178-0.005,0.307,0.021,0.414,0.061v-3.761c-0.102,0.038-0.234,0.056-0.406,0.041
		c-0.748-0.049-3.938-0.008-4.686-0.018c-0.683,0-1.358,0.015-2.035,0c-0.13,0-0.254-0.011-0.381-0.023H82.62
		c-1.83-0.172-3.315-1.371-4.038-3.003h9.578H88.91z M78.232,74.216c0.462-2.174,2.167-3.885,4.388-4.098
		c0.013,0,0.025,0,0.032-0.002c0.127-0.015,0.251-0.023,0.381-0.03h0.332h0.332c0.131,0.007,0.256,0.015,0.38,0.03
		c0.013,0.002,0.021,0.002,0.03,0.002c2.226,0.213,3.936,1.924,4.39,4.098H78.232z"/>
	<path fill="#FFFFFF" d="M140.291,69.172c-1.609-1.627-3.784-2.534-6.123-2.539h-0.041c-2.299,0-4.447,0.882-6.067,2.489
		c-1.627,1.62-2.529,3.792-2.534,6.119c-0.008,4.817,3.773,8.609,8.609,8.624h0.033c4.797,0,8.576-3.737,8.594-8.525
		C142.779,72.989,141.897,70.799,140.291,69.172 M139.222,75.247c0,2.749-2.183,4.976-4.902,5.071c-0.053,0-0.096,0.008-0.149,0.008
		h-0.015h-0.011c-2.8,0-5.073-2.273-5.073-5.079v-0.049v-0.049c0-0.418,0.068-0.835,0.183-1.233c0.585-2.15,2.555-3.739,4.891-3.739
		h0.008h0.018c0.114,0,0.226,0.013,0.34,0.015c2.063,0.146,3.786,1.534,4.433,3.411c0.013,0.045,0.035,0.09,0.048,0.132
		c0,0.013,0.003,0.02,0.003,0.029c0.149,0.443,0.229,0.899,0.229,1.385c0,0.015-0.003,0.034-0.003,0.052
		C139.219,75.213,139.222,75.232,139.222,75.247"/>
	<path fill-rule="evenodd" clip-rule="evenodd" fill="#FFFFFF" d="M75.65,67.127h-2.096c-0.37,0-0.758-0.003-1.254-0.003
		c-2.651,0-5.313-0.277-7.264,1.679c-1.625,1.627-2.129,3.987-2.106,6.089c0.023,2.737,0,8.538,0,8.938h3.548
		c0-1.206-0.015-6.469-0.005-9.134c0-2.702,1.498-4.012,5.976-4.012h2.737c0.071,0,0.124,0,0.167-0.008h0.297V67.127z"/>
	<path fill="#FFFFFF" d="M43.06,70.267v-3.14h-3.541l-0.015,9.844c0,2.463-2.393,3.977-4.828,3.994
		c-2.263,0.016-4.617-1.462-4.617-3.939c0-2.729-0.021-9.532-0.021-9.787v-0.111H26.49v0.111v0.737v0.171v4.243h0.01
		c0,1.55,0,3.003-0.018,4.521c-0.015,1.23,0.299,2.354,0.879,3.42c2.317,4.275,7.393,4.942,10.954,3.5
		c3.046-1.234,4.77-4.493,4.77-7.188C43.085,74.443,43.07,72.074,43.06,70.267"/>
	<path fill="#FFFFFF" d="M25.185,77.338c-0.525-2.206-2.416-3.593-4.686-3.607c-0.281-0.005-0.568-0.005-0.849-0.005v-0.003H14.21
		h-0.459c-0.682-0.002-1.328-0.614-1.498-1.224c-0.154-0.554,0.129-1.307,0.705-1.584c0.335-0.156,0.748-0.216,1.126-0.218
		c2.25-0.025,4.499-0.018,6.747-0.018h0.504h1.328h1.275h0.025v-3.554H13.822v0.021h-0.279c-1.234,0-2.276,0.464-3.097,1.395
		c-1.627,1.835-1.609,5.3,0.041,7.13c0.877,0.968,1.957,1.609,3.282,1.597c0.213-0.003,0.421,0,0.629-0.003h4.369
		c0.628,0.003,1.259,0.003,1.888,0.016c1.356,0.005,2.043,0.885,1.559,2.095c-0.299,0.745-0.915,0.89-1.627,0.89
		c-2.385,0-4.767,0.002-7.157,0.002c-0.735,0-1.47-0.02-2.203,0.021h-0.01h-0.619v3.54h0.271c0.094,0.019,0.167,0.023,0.235,0.023
		c3.349,0,6.699,0.021,10.057-0.023c0.544-0.002,1.133-0.2,1.632-0.44C24.85,82.361,25.788,79.91,25.185,77.338"/>
	<path fill="#FFFFFF" d="M108.405,77.338c-0.52-2.206-2.415-3.593-4.681-3.607c-0.281-0.005-0.563-0.005-0.847-0.005v-0.003h-5.444
		h-0.456c-0.687-0.002-1.333-0.614-1.5-1.224c-0.157-0.554,0.134-1.307,0.704-1.584c0.337-0.156,0.751-0.216,1.128-0.218
		c2.248-0.025,4.499-0.018,6.744-0.018h0.507h1.325h1.277h0.028v-3.554H97.044v0.021H96.77c-1.239,0-2.275,0.464-3.099,1.395
		c-1.622,1.835-1.609,5.3,0.043,7.13c0.874,0.968,1.956,1.609,3.281,1.597c0.213-0.003,0.421,0,0.634-0.003h4.361
		c0.632,0.003,1.263,0.003,1.891,0.016c1.358,0.005,2.043,0.885,1.56,2.095c-0.3,0.745-0.915,0.89-1.622,0.89
		c-2.388,0-4.775,0.002-7.16,0.002c-0.737,0-1.475-0.02-2.205,0.021H94.44h-0.623v3.54h0.281c0.094,0.019,0.162,0.023,0.233,0.023
		c3.351,0,6.698,0.021,10.051-0.023c0.548-0.002,1.139-0.2,1.638-0.44C108.073,82.361,109.016,79.91,108.405,77.338"/>
	<path fill="#FFFFFF" d="M124.537,77.338c-0.52-2.206-2.415-3.593-4.686-3.607c-0.281-0.005-0.565-0.005-0.85-0.005v-0.003h-5.439
		h-0.464c-0.677-0.002-1.323-0.614-1.495-1.224c-0.16-0.554,0.137-1.307,0.707-1.584c0.332-0.156,0.745-0.216,1.123-0.218
		c2.253-0.025,4.504-0.018,6.752-0.018h0.502h1.325h1.277h0.028v-3.554h-10.141v0.021h-0.282c-1.236,0-2.272,0.464-3.099,1.395
		c-1.625,1.835-1.604,5.3,0.04,7.13c0.877,0.968,1.959,1.609,3.284,1.597c0.208-0.003,0.421,0,0.632-0.003h4.365
		c0.628,0.003,1.259,0.003,1.888,0.016c1.358,0.005,2.043,0.885,1.562,2.095c-0.294,0.745-0.913,0.89-1.622,0.89
		c-2.389,0-4.776,0.002-7.158,0.002c-0.74,0-1.478-0.02-2.205,0.021h-0.01h-0.621v3.54h0.269c0.097,0.019,0.167,0.023,0.241,0.023
		c3.35,0,6.7,0.021,10.057-0.023c0.543-0.002,1.128-0.2,1.632-0.44C124.2,82.361,125.141,79.91,124.537,77.338"/>
</g>
</svg>
